<?xml version="1.0" encoding="iso-8859-1"?>
<!-- Generator: Adobe Illustrator 19.0.0, SVG Export Plug-In . SVG Version: 6.00 Build 0)  -->
<svg version="1.1" id="Capa_1" xmlns="http://www.w3.org/2000/svg" xmlns:xlink="http://www.w3.org/1999/xlink" x="0px" y="0px"
	 width="18" height="18" viewBox="0 0 512 512" style="enable-background:new 0 0 512 512;" xml:space="preserve">
<g>
	<polygon style="fill:#FFEC8D;" points="68.116,137.651 128.584,129.955 134.961,151.064 140.898,261.887 80.209,260.788 	"/>
	<polygon style="fill:#FFEC8D;" points="183.996,127.976 237.868,127.316 241.826,141.389 239.627,261.667 183.556,260.567 	"/>
	<path style="fill:#FFEC8D;" d="M274.589,129.075c0.66,0.22,58.05,2.199,58.05,2.199l5.277,11.874l-3.958,114.121l-51.893,3.738
		l-6.597-2.418L274.589,129.075z"/>
	<polygon style="fill:#FFEC8D;" points="374.638,133.913 441.263,136.552 439.284,260.567 369.36,261.667 	"/>
</g>
<g>
	<polygon style="fill:#FF9D7B;" points="102.858,132.813 73.833,177.891 78.23,220.328 130.344,132.154 	"/>
	<polygon style="fill:#FF9D7B;" points="132.762,192.403 95.821,256.83 135.401,260.348 141.998,258.369 	"/>
	<polygon style="fill:#FF9D7B;" points="228.413,129.295 181.577,198.34 184.216,249.134 238.528,182.288 240.067,131.274 	"/>
	<path style="fill:#FF9D7B;" d="M308.892,130.615l-34.083,44.417l2.858,40.239c0,0,61.349-73.442,60.249-72.123
		s-5.277-11.874-5.277-11.874L308.892,130.615z"/>
	<polygon style="fill:#FF9D7B;" points="335.278,200.539 334.398,262.327 286.023,258.589 	"/>
	<polygon style="fill:#FF9D7B;" points="414.437,135.672 371.119,187.785 372.878,242.537 440.823,164.478 439.064,132.594 	"/>
	<path style="fill:#FF9D7B;" d="M437.305,224.066c-0.66,0.22-36.061,35.842-36.061,35.842l41.559,0.879L437.305,224.066z"/>
</g>
<g>
	<path style="fill:#F95252;" d="M89.893,21.411c0.206,1.961-0.954,3.916-1.632,5.685c-1.905,4.97-4.231,9.779-7.237,14.197
		c-4.805,7.063-9.786,14.617-12.805,22.673c-1.375,3.668-3.266,7.762-3.481,11.715c-0.229,4.216,0.356,8.81,1.55,12.846
		c2.233,7.552,6.896,13.28,13.842,16.995c5.709,3.053,10.185,3.606,16.541,2.801c6.721-0.852,13.427-3.786,18.103-8.758
		c4.824-5.129,7.689-12.198,7.816-19.194c0.141-7.771-1.957-14.111-4.762-21.268c-3.268-8.335-9.173-15.34-14.297-22.601
		c-2.728-3.864-5.635-7.351-8.667-10.975c-1.389-1.659-2.518-3.498-4.06-5.028c-0.856-0.85-2.1-1.494-2.564-2.578"/>
	<path style="fill:#F95252;" d="M201.718,19.392c0.779,1.796,0.058,5.127-0.259,6.99c-0.759,4.471-2.647,8.576-4.928,12.45
		c-4.171,7.083-9.933,13.172-13.265,20.781c-3.386,7.734-5.305,17.474-3.452,25.824c1.541,6.948,6.068,10.308,11.145,14.728
		c4.617,4.019,9.805,7.111,15.501,9.409c5.824,2.349,11.43,4.031,16.24-0.975c2.257-2.35,3.008-4.775,4.513-7.52
		c1.761-3.21,4.048-6.2,4.888-9.838c1.755-7.597,1.459-16.815-0.743-24.26c-1.63-5.511-4.503-10.251-7.145-15.291
		c-2.515-4.8-4.595-9.833-7.29-14.539C213.403,31.002,209.044,25.02,201.718,19.392z"/>
	<path style="fill:#F95252;" d="M296.65,25.268c1.688,7.637-2.518,15.859-7.28,21.604c-3.049,3.679-6.519,6.749-9.307,10.684
		c-2.375,3.352-3.379,7.534-4.604,11.42c-2.453,7.781-2.762,15.994-0.208,23.786c2.088,6.37,6.731,10.872,11.816,14.97
		c5.226,4.212,11.832,7.389,18.673,6.379c7.201-1.062,13.428-3.766,17.965-9.581c4.98-6.383,7.59-14.234,6.472-22.27
		c-0.979-7.026-3.446-13.376-6.723-19.587c-3.721-7.052-7.825-13.499-12.53-19.905C306.215,36.358,302.875,27.987,296.65,25.268z"/>
	<path style="fill:#F95252;" d="M408.476,22.697c0.762,4.774,1.813,9.445,1.441,14.393c-0.562,7.474-3.155,13.902-7.416,20.05
		c-5.079,7.327-11.906,12.593-15.242,21.106c-2.319,5.919-4.733,13.182-2.455,19.52c2.755,7.665,9.944,11.265,17.224,13.626
		c7.512,2.438,14.091,1.474,21.328-1.476c7.631-3.11,14.113-8.151,17.624-15.733c1.974-4.266,3.861-7.867,4.406-12.582
		c0.586-5.073,0.591-10.041-0.261-15.103c-1.5-8.908-6.061-18.061-11.351-25.291c-2.654-3.627-5.527-7.186-8.949-10.137
		c-3.208-2.768-8.145-6.203-12.493-6.537"/>
</g>
<path style="fill:#FFECD4;" d="M15.926,341.906c-1.463,0.562-2.809,1.408-3.969,2.711c-2.868,3.221-1.191,7.743-0.641,11.601
	c3.736,26.155,7.473,52.311,11.209,78.466c2.411,16.875,4.821,33.749,7.232,50.624l104.44,7.686l339.09-9.947l16.276-16.276
	l1.356-124.785l-12.66,2.713l-18.085-25.319l-27.579,7.686l-18.989,6.782l-29.388-28.032l-15.372,1.356l-14.016,23.963
	l-23.058,33.909l-23.058-1.356l-17.633-22.154l0.452-30.292l-18.989-9.946l-25.771,13.111l-25.319,15.372l-10.851-3.165
	l-18.537-20.797l-15.372-0.452l-20.346,23.51l-18.989,10.398l-24.414-4.521l-15.824-23.058l-14.468-9.042l-14.92,4.521
	l-16.276,22.606c-0.925,1.285-4.624,2.312-6.003,3.002c-3.994,1.996-8.089,3.865-11.99,6.036
	C28.358,341.66,21.34,339.828,15.926,341.906z"/>
<polygon style="fill:#FF9D7B;" points="13.806,399.38 488.604,389.635 488.604,425.367 22.526,434.684 "/>
<path style="fill:#D1632E;" d="M266.52,304.154c-5.868,1.96-9.39,7.159-14.811,9.661c-5.444,2.512-9.694,6.525-14.898,9.484
	c-7.899,4.491-15.345,8.237-24.272,3.504c-7.291-3.865-11.78-10.864-16.505-17.313c-1.946-2.657-3.646-4.576-6.969-5.059
	c-2.943-0.427-5.735-0.728-8.645,0.141c-7.04,2.1-12.992,8.513-18.263,13.313c-6.402,5.832-9.688,14.814-18.045,18.559
	c-6.898,3.09-16.255,3.095-23.429,1.099c-10.558-2.938-14.005-12.927-21.904-19.299c-3.523-2.842-5.569-6.74-9.044-9.599
	c-5.971-4.911-13.285-4.894-19.384-0.447c-6.973,5.084-9.458,14.844-14.152,21.772c-4.662,6.88-12.28,9.925-20.268,11.643
	c-6.172,1.327-13.528,3.048-19.439-0.231c-8.45-4.688-9.913-15.498-11.826-23.897c-1.403-6.158-2.04-12.589-1.485-18.901
	c0.447-5.086,0.25-11.087,1.91-15.924c1.65-4.808,4.681-11.064,8.038-14.88c3.428-3.897,8.419-4.745,13.199-5.924
	c7.482-1.846,16.202-1.834,23.876-2.138c10.712-0.424,21.417,0.422,32.127,0.447c7.519,0.018,15.015-1.256,22.537-0.732
	c2.929,0.204,5.56,1.233,8.3,1.807c0.395,0.083,0.791,0.156,1.191,0.216c3.562,0.533,8.097-0.662,11.691-0.973
	c15.786-1.365,31.634-2.528,47.49-2.063c8.844,0.259,17.691,0.583,26.508,1.354c4.246,0.371,8.837,0.504,12.986,1.516
	c3.868,0.944,7.061,0.542,11.086,0.514c5.608-0.04,11.217,0.104,16.825-0.027c14.747-0.344,29.491-1.016,44.214-1.888
	c21.493-1.273,43.408-2.134,64.933-1.335c7.518,0.279,15.357,0.108,22.794,1.26c7.623,1.181,15.333,0.497,23.021,0.787
	c13.027,0.492,26.186-0.386,39.222-0.503c14.656-0.131,30.028-1.703,44.283,2.412c7.758,2.239,16.04,8.467,21.007,14.914
	c6.317,8.198,6.364,19.772,3.65,29.418c-2.771,9.849-16.944,48.216-32.914,31.815c-3.1-3.184-6.244-5.823-9.031-9.254
	c-2.005-2.467-3.828-5.838-7.272-6.182c-9.194-0.918-18.207,3.861-26.498,6.955c-3.321,1.24-7.014,3.183-10.66,3.271
	c-3.592,0.086-8.435-1.206-11.594-2.753c-3.604-1.767-6.516-4.654-9.178-7.598c-2.416-2.672-5.687-5.595-7.146-8.897
	c-3.107-7.034-9.16-9.368-16.682-7.264c-7.013,1.962-14.146,8.277-17.857,14.446c-3.068,5.1-5.759,10.63-7.869,16.188
	c-2.024,5.33-4.659,10.005-7.102,15.106c-4.393,9.175-16.811,12.278-26.195,11.533c-4.063-0.323-9.231-1.963-11.967-5.212
	c-1.259-1.496-2.335-3.227-3.528-4.78c-2.006-2.613-2.449-6.024-3.27-9.172c-1.896-7.269-2.109-15.053-4.131-22.301
	c-1.279-4.584-2.987-11.258-6.52-14.614C279.697,303.417,272.854,302.038,266.52,304.154z"/>
<path d="M504.114,266.622c-8.27-10.106-21.094-10.729-33.226-10.694c-8.295,0.023-16.591,0.079-24.887,0.14
	c0.048-0.305,0.082-0.62,0.084-0.956c0.289-40.325-0.667-80.705-0.824-121.037c-0.01-2.427-2.046-4.478-4.482-4.483
	c-9.237-0.019-18.488-0.038-27.737-0.133c0.804-4.709,2.05-9.433,3.43-14.171c8.883-1.008,17.413-4.807,22.925-11.341
	c10.962-12.994,11.684-33.453,6.753-49.018c-5.611-17.711-19.6-31.986-37.657-36.954c-2.981-0.82-5.094,3.406-2.662,5.128
	c3.816,9.437,2.852,19.774-2.696,28.375c-4.805,7.45-12.18,12.791-17.25,20.043c-9.451,13.521-7.759,30.63,7.104,39.312
	c4.408,2.576,9.597,4.09,14.967,4.567c-1.709,4.144-3.084,8.364-3.726,12.74c-0.062,0.419-0.056,0.815-0.02,1.197
	c-5.051-0.086-10.101-0.196-15.145-0.364c-6.007-0.201-15.03-2.176-18.328,4.548c-1.486,3.029-1.151,6.723-1.224,9.99
	c-0.104,4.654-0.208,9.31-0.312,13.964c-0.736,33.008-3.175,66.473-1.581,99.496c-2.386,0.039-4.772,0.078-7.158,0.117
	c-6.482-0.126-12.965-0.255-19.448-0.384c0.586-34.169,0.276-68.38,0.622-102.555c0.068-6.718,1.372-15.17-1.828-21.415
	c-2.907-5.673-8.593-7.714-14.64-8.113c-6.056-0.399-12.138-0.478-18.229-0.458c0.628-1.583,1.153-3.193,1.597-4.822
	c6.164-0.587,11.95-3.723,16.117-8.629c6.486-7.639,7.944-18.181,6.684-27.836c-3.151-24.13-18.519-42.506-31.122-62.315
	c-1.817-2.857-6.09-1.645-6.255,1.694c-1.071,21.643-22.136,35.326-23.575,56.98c-1.246,18.733,11.194,34.973,29.18,39.104
	c-0.675,1.968-1.405,3.933-2.19,5.9c-7.875,0.087-15.75,0.161-23.59-0.245c-2.734-0.142-5.22,2.475-5.153,5.153
	c0.554,22.206,1.111,44.407,1.9,66.606c0.383,10.75,0.803,21.487,1.384,32.228c0.49,9.067,0.619,18.341,1.682,27.407
	c-9.124-0.169-18.249-0.333-27.373-0.485c-0.592-22.891-1.251-45.781-1.68-68.676c-0.214-11.479-0.429-22.959-0.644-34.439
	c-0.143-7.649,1.737-19.446-3.958-25.71c-6.048-6.654-17.963-3.915-25.83-3.771c-0.542,0.01-1.085,0.014-1.627,0.022
	c0.662-1.802,1.208-3.627,1.663-5.466c0.48,0.033,0.955,0.08,1.443,0.092c14.577,0.373,22.51-14.412,23.203-27.148
	c0.773-14.217-4.021-29.398-10.181-42.05c-6.332-13.006-15.552-23.15-25.464-33.457c-1.513-1.573-4.544-0.425-4.432,1.835
	c1.187,23.874-23.847,39.642-23.222,63.462c0.402,15.32,10.784,27.711,24.348,32.791c2.674,1.561,5.537,2.782,8.591,3.568
	c-0.565,2.181-1.231,4.339-2.023,6.457c-2.796,0.031-5.592,0.059-8.387,0.093c-4.61,0.058-9.803-0.407-14.189,1.314
	c-9.334,3.664-7.535,14.485-7.357,22.565c0.253,11.448,0.483,22.896,0.86,34.341c0.805,24.439,1.713,48.869,2.729,73.3
	c-11.51-0.106-23.02-0.192-34.53-0.232c-2.239-34.043-4.68-68.073-6.968-102.113c-0.44-6.56,0.255-14.942-3.475-20.731
	c-3.213-4.987-9.16-6.27-14.716-5.856c-5.82,0.433-11.622,1.182-17.418,2.042c1.094-4.931,1.282-10.133,0.746-15.307
	c6.018-0.853,11.417-4.028,15.444-9.051c6.651-8.296,7.309-19.257,5.404-29.362c-2.054-10.9-6.631-21.705-11.904-31.421
	c-5.232-9.64-11.639-20.264-19.542-27.962c-2.614-2.546-7.219-0.707-7.224,2.992c-0.014,11.487-7.199,21.83-12.542,31.535
	c-5.137,9.33-9.933,19.516-10.066,30.381c-0.233,19.044,14.629,34.189,33.389,34.285c0.371,4.952,0.37,9.859,0.379,14.818
	c-9.211,1.455-18.417,3.029-27.661,3.93c-2.516,0.245-5.212,2.089-4.985,4.985c1.623,20.661,4.086,41.319,6.391,61.915
	c2.095,18.719,4.171,37.386,7.337,55.946c-1.672,0.053-3.344,0.104-5.016,0.148c-7.623,0.207-15.243,0.456-22.869,0.497
	c-7.293,0.039-14.791-0.363-22.041,0.568C4.76,259.048,0.198,282.015,0.018,302.051c-0.112,12.467,0.078,26.37,7.598,36.949
	c0.008,0.011,0.016,0.021,0.023,0.031c0.129,10.588,1.125,21.192,1.768,31.75c0.81,13.307,1.735,26.607,2.615,39.91
	c0.856,12.945,1.64,25.897,2.648,38.832c0.805,10.316,0.828,21.442,5.295,30.995c9.973,21.325,39.063,18.166,58.445,18.502
	c26.174,0.453,52.363-0.418,78.53-0.923c53.039-1.022,106.071-2.364,159.1-3.798c26.515-0.717,53.028-1.472,79.541-2.266
	c13.075-0.391,26.149-0.794,39.223-1.22c11.701-0.381,23.734,0.003,35.33-1.784c10.393-1.601,19.842-6.891,23.291-17.371
	c1.835-5.579,1.773-11.623,1.835-17.426c0.082-7.623,0.151-15.246,0.228-22.869c0.297-29.904,0.595-59.813,0.39-89.719
	c1.12-1.104,2.162-2.292,3.091-3.565c7.29-9.991,10.284-24.683,12.178-36.651C513.063,289.312,512.173,276.473,504.114,266.622z
	 M410.738,107.997c-9.397-0.065-20.305-4.222-22.703-14.341c-2.448-10.334,6.884-19.035,12.925-26.089
	c5.487-6.407,10.184-13.19,11.667-21.668c1.186-6.778,0.424-13.582-1.768-20.002c14.361,8.509,25.516,21.829,28.907,38.601
	c2.019,9.982,1.432,21.468-3.576,30.531c-3.764,6.813-10.133,10.621-17.296,12.155c3.988-13.303,7.58-26.732,3.833-40.307
	c-0.365-1.321-2.441-0.754-2.055,0.567c4.326,14.824-3.042,27.516-9.354,40.543C411.125,107.989,410.932,107.999,410.738,107.997z
	 M378.006,169.291c0.357-7.519,0.713-15.039,1.07-22.558c0.083-1.758-0.018-3.629,0.254-5.371c0.49-3.129,0.072-2.64,3.27-2.961
	c3.52-0.353,7.236-0.168,10.774-0.179c5.283-0.016,10.568,0.01,15.853,0.034c-10.947,12.121-21.723,24.583-31.511,37.667
	C377.807,173.711,377.902,171.5,378.006,169.291z M377.309,186.653c0.562-0.22,1.089-0.594,1.518-1.177
	c11.709-15.933,23.173-31.916,35.722-47.208c7.233,0.048,14.467,0.126,21.697,0.227c-0.093,8.837-0.224,17.676-0.364,26.516
	c-19.796,24.022-40.818,47.007-60.754,70.889C376.271,219.524,376.732,203.054,377.309,186.653z M374.356,245.641
	c0.324-0.152,0.644-0.367,0.949-0.68c21.744-22.318,41.305-47.203,60.445-71.867c-0.272,16.352-0.551,32.705-0.732,49.055
	c-12.244,11.228-25.048,22.192-36.338,34.342c-8.485,0.115-16.971,0.25-25.457,0.389
	C373.659,253.142,374.022,249.394,374.356,245.641z M434.924,256.147c-3.285,0.024-6.57,0.05-9.855,0.071
	c-5.875,0.038-11.749,0.112-17.623,0.181c9.533-8.766,18.484-18.309,27.504-27.629c-0.08,8.782-0.135,17.563-0.118,26.342
	C434.833,255.477,434.869,255.818,434.924,256.147z M308.203,134.105c0.072-0.103,0.121-0.204,0.173-0.306
	c3.796,0.022,7.591,0.053,11.383,0.077c2.823,0.018,6.366-0.374,9.018,0.791c3.586,1.574,3.464,5.572,3.465,8.92
	c0,0.893-0.013,1.784-0.018,2.677c-17.893,20.55-35.385,41.539-52.61,62.659c0.009-4.748,0.003-9.495-0.011-14.245
	c-0.019-6.438-0.063-12.876-0.118-19.313C289.021,161.586,298.559,147.81,308.203,134.105z M279.511,69.602
	c4.977-13.727,17.648-24.603,20.624-38.911c10.193,12.423,19.004,26.643,23.327,42.067c2.465,8.797,3.212,19.047-0.963,27.477
	c-2.485,5.019-7.109,9.336-12.5,11.108c0.987-10.008-0.964-20.339-4.846-29.578c-0.78-1.858-3.684-1.22-3.124,0.862
	c2.745,10.2,2.005,19.898-0.551,29.469c-0.06,0.01-0.122,0.014-0.181,0.027C283.902,106.385,273.051,87.417,279.511,69.602z
	 M302.875,133.776c-7.783,10.705-15.624,21.366-23.479,32.018c-0.11-10.57-0.249-21.139-0.392-31.709
	C286.952,133.805,294.915,133.754,302.875,133.776z M279.465,227.981c0.043-2.79,0.076-5.579,0.099-8.368
	c17.792-21.595,35.429-43.428,52.56-65.576c-0.083,4.382-0.189,8.764-0.261,13.143c-0.183,11.224-0.453,22.449-0.733,33.675
	c-8.104,9.474-16.225,18.925-24.486,28.263c-7.587,8.576-16.676,16.971-23.16,26.459c-1.549-0.029-3.098-0.062-4.647-0.091
	C279.583,246.378,279.324,237.073,279.465,227.981z M330.91,209.612c-0.391,15.625-0.766,31.252-0.921,46.875
	c-12.84-0.256-25.68-0.505-38.521-0.752c2.728-3.066,5.244-6.392,7.854-9.459c3.986-4.684,7.972-9.366,11.958-14.05
	C317.75,224.622,324.321,217.11,330.91,209.612z M230.925,131.198c1.101,0.313,2.008,0.813,2.551,1.598
	c1.815,2.623,0.929,8.588,0.962,11.458c0.058,5.022,0.116,10.045,0.174,15.067c0.084,7.296,0.167,14.593,0.252,21.89
	c-8.694,11.297-17.431,22.559-26.22,33.782c-4.4,5.618-8.8,11.236-13.2,16.855c-2.828,3.611-5.981,7.257-8.784,11.064
	c0.139-16.009,0.238-32.016,0.259-48.023C200.436,172.966,214.576,151.104,230.925,131.198z M204.565,108.004
	c-15.39-7.46-25.469-21.942-19.027-40.198c5.55-15.731,18.353-28.631,18.795-45.443c14.126,13.985,22.947,34.912,25.623,54.029
	c1.636,11.685,0.953,27.199-12.248,31.771c-0.752,0.261-1.497,0.471-2.233,0.635c0.996-11.451-1.699-23.122-7.584-33.482
	c-0.988-1.74-3.488-0.212-2.65,1.549c4.823,10.136,6.146,21.388,4.56,32.317C208,109.03,206.254,108.618,204.565,108.004z
	 M191.117,132.064c4.676-0.663,9.689-0.343,14.417-0.499c4.648-0.154,9.295-0.314,13.945-0.392c0.938-0.016,2.313-0.158,3.84-0.276
	c-12.166,18.005-24.658,35.748-36.407,54.024c-0.007-14.633-0.054-29.266-0.191-43.901
	C186.68,136.678,185.916,132.802,191.117,132.064z M186.589,251.639c4.683-4.595,8.536-10.432,12.487-15.635
	c4.532-5.967,9.064-11.935,13.596-17.902c7.39-9.729,14.822-19.424,22.28-29.099c0.248,21.907,0.269,43.816,0.364,65.724
	c-16.249-0.256-32.498-0.471-48.748-0.635C186.577,253.274,186.581,252.456,186.589,251.639z M135.49,253.783
	c-5.546-0.008-11.093-0.031-16.64-0.02c-6.452,0.012-12.908,0.159-19.366,0.353c6.334-10.007,11.712-20.809,17.475-31.075
	c4.949-8.816,9.909-17.611,14.984-26.347C133.107,215.725,134.261,234.756,135.49,253.783z M128.523,142.014
	c0.664,7.859,0.998,15.762,1.496,23.634c0.468,7.399,0.927,14.799,1.382,22.199c-6.378,10.823-12.952,21.513-19.568,32.197
	c-6.991,11.29-14.815,22.487-20.866,34.345c-2.491,0.085-4.981,0.172-7.471,0.256c-0.22-9.454-0.723-18.881-1.364-28.302
	c4.712-6.967,8.382-14.901,12.384-22.295c4.114-7.6,8.13-15.254,12.19-22.883c7.326-13.767,14.5-27.602,21.607-41.48
	C128.409,140.466,128.459,141.259,128.523,142.014z M94.382,85.652c-1.305-1.961-4.999-0.773-4.051,1.708
	c2.376,6.222,4.39,12.332,5.499,18.831c-0.546,0.436-0.93,1.066-1.121,1.761c-7.897-1.676-15.112-6.344-19.602-13.144
	c-5.478-8.295-5.547-18.042-2.598-27.292c2.867-8.992,8.033-16.965,12.441-25.236c2.91-5.458,5.28-10.944,7.146-16.692
	c4.262,4.749,8.391,9.478,11.854,15.086c4.681,7.58,8.6,15.809,11.33,24.293c2.837,8.815,4.678,19.416,0.638,28.171
	c-2.63,5.701-7.373,10.462-13.308,11.98C101.019,98.064,98.147,91.311,94.382,85.652z M103.453,136.607
	c3.998-0.553,7.995-1.1,11.989-1.651c2.782-0.384,6.912-1.453,9.695-0.39c0.468,0.179,0.86,0.413,1.2,0.682
	c-8.357,14.25-16.638,28.532-24.761,42.918c-4.247,7.52-8.535,15.019-12.73,22.567c-2.457,4.418-5.138,8.848-7.616,13.354
	c-0.423-5.424-0.868-10.85-1.315-16.28c-0.5-6.072-0.995-12.152-1.497-18.233C86.291,164.913,94.346,150.524,103.453,136.607z
	 M77.376,167.325c-0.768-8.783-1.591-17.56-2.558-26.31c7.12-1.278,14.277-2.371,21.444-3.398
	C89.596,147.251,83.191,157.148,77.376,167.325z M483.504,453.144c-0.1,10.075,0.051,20.246-11.351,23.479
	c-9.741,2.762-20.794,1.884-30.813,2.212c-12.348,0.405-24.696,0.807-37.043,1.21c-25.06,0.82-50.12,1.606-75.181,2.359
	c-49.76,1.494-99.524,2.789-149.29,4.076c-24.506,0.634-49.013,1.482-73.529,1.475c-12.512-0.003-25.042-0.119-37.533-0.873
	c-9.49-0.573-21.009-0.154-29.584-4.935c-9.823-5.476-10.248-18.41-11.314-28.31c-0.597-5.542-1.229-11.079-1.874-16.615
	c120.171-1.775,240.286-5.645,360.481-6.542c32.419-0.243,64.839-0.39,97.259-0.367C483.656,437.924,483.58,445.534,483.504,453.144
	z M483.873,416.118c-0.019,1.897-0.038,3.794-0.057,5.691c-120.224,0.3-240.445,1.702-360.623,5.152
	c-32.677,0.938-65.309,2.142-97.95,3.86c-0.709-5.992-1.429-11.982-2.145-17.974c-0.438-3.668-0.872-7.338-1.307-11.007
	c120.552-1.377,241.092-3.807,361.638-5.654c17.07-0.262,34.143-0.452,51.209-0.862c16.364-0.394,33.177,0.233,49.493-1.411
	C484.034,401.315,483.946,408.717,483.873,416.118z M484.236,386.28c-14.247-0.9-28.812,0.106-43.06,0.284
	c-15.256,0.19-30.508,0.513-45.762,0.836c-30.508,0.646-61.016,1.294-91.523,1.94c-61.377,1.301-122.757,2.449-184.137,3.616
	c-32.92,0.626-65.833,1.435-98.749,2.268c-0.924-7.791-1.856-15.581-2.825-23.365c-1.046-8.404-1.872-16.889-3.046-25.305
	c5.817,4.128,12.956,6.023,20.308,4.032c10.301-2.789,17.07-11.985,22.151-20.78c5.011-8.672,11.907-23.994,24.021-23.558
	c11.425,0.412,15.905,16.291,21.764,23.833c5.833,7.51,14.656,12.236,24.001,13.651c9.669,1.464,19.67-0.391,27.659-6.194
	c4.846-3.521,8.345-8.218,11.702-13.111c3.729-5.436,6.973-11.972,13.16-15.045c10.957-5.442,16.61,7.154,21.871,14.323
	c5.975,8.142,14.268,13.942,24.86,12.027c13.157-2.378,21.224-13.011,30.89-21.076c4.214-3.516,9.748-7.684,15.457-8.099
	c6.731-0.489,10.748,4.77,12.512,10.628c3.577,11.88,0.325,24.664,6.244,36.073c5.237,10.094,15.973,16.97,27.301,17.581
	c11.375,0.613,22.421-5.326,28.771-14.633c6.675-9.783,7.38-21.746,11.771-32.441c4.211-10.258,15.439-20.854,25.865-11.599
	c6.475,5.748,9.584,14.438,15.72,20.55c6.736,6.709,15.84,8.497,24.632,4.74c7.682-3.282,20.849-18.377,30.04-13.084
	c4.582,2.638,4.145,11.037,6.424,15.431c2.272,4.378,6.267,7.475,11.041,8.703c3.988,1.027,7.957,0.825,11.66-0.279
	C484.649,360.911,484.421,373.596,484.236,386.28z M496.934,313.58c-2.28,9.461-5.333,23.643-17.024,25.188
	c-12.371,1.637-9.81-15.172-16.938-21.398c-7.667-6.697-19.406-3.635-27.168,1.255c-7.556,4.759-17.148,16-26.691,9.259
	c-12.527-8.85-16.908-30.806-36.295-27.375c-10.093,1.786-17.763,10.739-21.825,19.639c-4.541,9.948-5.433,21.939-12.084,30.858
	c-7.272,9.754-21.506,12.054-31.375,4.933c-11.287-8.144-9.328-21.754-10.845-33.956c-1.202-9.662-5.361-20.229-14.748-24.591
	c-10.512-4.886-21.914-0.066-30.438,6.516c-8.697,6.716-16.546,18.369-28.015,20.418c-9.643,1.723-15.381-8.181-20.697-14.47
	c-5.459-6.46-12.743-11.496-21.628-9.978c-11.864,2.028-18.504,12.524-24.929,21.539c-6.231,8.743-15.378,13.564-26.215,13.252
	c-10.609-0.307-18.506-5.762-24.178-14.434c-4.849-7.414-9.325-16.449-17.936-20.078c-9.459-3.987-18.897-0.085-26.122,6.377
	c-11.025,9.862-26.073,47.573-44.76,27.153c-8.329-9.102-8.043-23.648-8.125-35.24c-0.067-9.581,0.495-20.898,7.188-28.459
	c8.638-9.758,25.854-6.397,37.425-6.152c14.523,0.308,29.043,1.11,43.56,1.652c58.38,2.18,116.912,1.115,175.328,1.051
	c49.193-0.059,98.374-0.233,147.564-0.691c14.066,0.247,28.132,0.474,42.198,0.672c11.836,0.167,26.871-1.509,34.083,10.118
	C503.155,287.78,499.789,301.732,496.934,313.58z"/>
<g>
</g>
<g>
</g>
<g>
</g>
<g>
</g>
<g>
</g>
<g>
</g>
<g>
</g>
<g>
</g>
<g>
</g>
<g>
</g>
<g>
</g>
<g>
</g>
<g>
</g>
<g>
</g>
<g>
</g>
</svg>
