<svg id="Layer_1" enable-background="new 0 0 511.466 511.466" height="25" viewBox="0 0 511.466 511.466" width="25" xmlns="http://www.w3.org/2000/svg"><path d="m149.062 45.124c0-13.255 10.745-24 24-24h317.333v362.667c-13.011 0-326.817 0-317.333 0-13.255 0-24-10.745-24-24 0-34.637 0-322.738 0-314.667z" fill="#f1ebeb"/><path d="m490.395 21.124-170.666 106.667v362.666l170.666-106.666z" fill="#7be3d4"/><path d="m511.3 19.236c-.698-7.782-5.68-14.592-13.023-17.569-5.712-2.316 19.828-1.543-325.216-1.543-24.813 0-45 20.187-45 45v40c0 11.598 9.402 21 21 21s21-9.402 21-21v-40c0-1.654 1.346-3 3-3h244.112l-108.575 67.859c-6.14 3.837-9.87 10.567-9.87 17.808v235h-125.666c-1.654 0-3-1.346-3-3v-104c0-11.598-9.402-21-21-21s-21 9.402-21 21v104c0 24.813 20.187 45 45 45h125.667v85.667c0 16.565 18.279 26.467 32.13 17.808l170.667-106.667c6.14-3.837 9.87-10.567 9.87-17.808 0-389.819.051-362.921-.096-364.555zm-41.904 352.915-128.667 80.417v-313.138l128.667-80.417z"/><path d="m383.729 287.458c11.598 0 21-9.402 21-21v-21.334c0-11.598-9.402-21-21-21s-21 9.402-21 21v21.334c0 11.597 9.402 21 21 21z"/><path d="m21.062 191.458h117.334c11.598 0 21-9.402 21-21s-9.402-21-21-21h-117.334c-11.598 0-21 9.402-21 21s9.402 21 21 21z"/><path d="m179.128 229.923c9.241 6.929 22.412 5.118 29.4-4.199l32-42.666c5.601-7.467 5.601-17.733 0-25.2l-32-42.667c-6.959-9.276-20.119-11.159-29.399-4.2-9.278 6.959-11.159 20.121-4.2 29.399l22.55 30.067-22.55 30.065c-6.959 9.279-5.079 22.443 4.199 29.401z"/><path d="m74.396 277.458h-53.334c-11.598 0-21 9.402-21 21s9.402 21 21 21h53.334c11.598 0 21-9.402 21-21s-9.403-21-21-21z"/></svg>