<svg id="Capa_1" enable-background="new 0 0 512 512" height="25" viewBox="0 0 512 512" width="25" xmlns="http://www.w3.org/2000/svg"><g><path d="m422.269 271.781c-.002-.006-.004-.012-.006-.018-12.601-33.438-34.766-62.034-64.101-82.693-18.436-12.985-38.883-22.201-60.45-27.384-3.312-10.609-28.079-89.935-31.638-101.334 7.438-3.714 12.562-11.4 12.562-20.263 0-12.481-10.155-22.637-22.637-22.637s-22.637 10.155-22.637 22.637c0 8.863 5.124 16.549 12.562 20.263-3.618 11.587-28.346 90.792-31.642 101.35-19.573 4.711-38.256 12.743-55.301 23.877-28.11 18.364-50.376 44.15-64.39 74.572-1.732 3.762-.088 8.217 3.675 9.95 3.763 1.73 8.216.087 9.95-3.675 7.434-16.138 17.351-30.673 29.17-43.234 4.783 3.714 9.761 7.184 14.918 10.397-13.366 27.381-20.985 59.51-21.969 93.293h-36.766c.444-9.744 1.738-19.421 3.891-28.855.922-4.038-1.604-8.059-5.643-8.98-4.038-.928-8.06 1.604-8.98 5.643-2.956 12.945-4.454 26.3-4.454 39.692v.001s0 0 0 0c-.001 10.678.955 21.379 2.841 31.804.001.009.003.017.004.025 15.292 84.475 88.79 145.788 174.772 145.788 46.832 0 91.401-18.562 124.327-50.792.037-.034.073-.069.109-.104 7.691-7.541 14.748-15.826 21.045-24.798 2.38-3.391 1.561-8.068-1.83-10.447-3.39-2.378-8.068-1.561-10.447 1.83-4.458 6.353-9.342 12.318-14.578 17.895-4.787-3.718-9.77-7.191-14.931-10.408 13.367-27.381 20.985-59.51 21.969-93.293h36.777c-.883 19.622-5.227 38.646-12.964 56.65-1.636 3.806.124 8.216 3.93 9.852.965.415 1.969.611 2.957.611 2.907 0 5.674-1.7 6.895-4.541 9.528-22.171 14.359-45.746 14.359-70.072-.001-21.549-3.819-42.611-11.349-62.602zm-14.043 5.272c.002.005.004.01.006.015 6.016 15.97 9.442 32.694 10.215 49.815h-36.783c-.984-33.783-8.603-65.912-21.969-93.293 5.139-3.203 10.1-6.66 14.868-10.359 14.422 15.3 25.998 33.481 33.663 53.822zm-91.427 49.83c-.339-25.362-2.395-49.772-5.991-71.884 12.5-3.491 24.507-8.186 35.83-14.006 11.765 24.531 19.03 54.029 20.02 85.89zm-30.806 164.057c11.005-17.384 17.979-42.194 22.102-62.346 10.973 3.154 21.52 7.308 31.481 12.412-13.988 23.594-32.524 41.229-53.583 49.934zm-29.993 6.06c-10.233 0-21.947-17.078-30.569-44.57-2.641-8.421-4.961-17.603-6.947-27.383 12.158-2.439 24.726-3.702 37.516-3.702s25.358 1.263 37.516 3.702c-7.435 36.618-22.046 71.953-37.516 71.953zm-60.799-155.117c.339 25.362 2.395 49.773 5.991 71.885-12.5 3.491-24.507 8.185-35.83 14.006-11.765-24.531-19.03-54.029-20.02-85.89h49.859zm8.705 86.711c4.124 20.161 11.099 44.966 22.102 62.346-21.06-8.705-39.596-26.34-53.583-49.935 9.961-5.104 20.507-9.257 31.481-12.411zm52.094-22.249c-13.687 0-27.148 1.344-40.186 3.941-3.358-21.016-5.283-44.232-5.613-68.403h91.598c-.33 24.171-2.255 47.387-5.613 68.403-13.038-2.597-26.499-3.941-40.186-3.941zm-45.799-79.462c.33-24.171 2.255-47.386 5.613-68.402 13.037 2.596 26.499 3.941 40.186 3.941s27.148-1.345 40.186-3.941c3.358 21.016 5.283 44.231 5.613 68.402zm75.792-149.057c21.06 8.706 39.596 26.341 53.583 49.935-9.961 5.104-20.508 9.258-31.481 12.412-4.125-20.163-11.1-44.967-22.102-62.347zm-59.986 0c-11.005 17.384-17.979 42.194-22.102 62.347-10.974-3.154-21.52-7.308-31.481-12.412 13.987-23.595 32.524-41.23 53.583-49.935zm-.576 38.51c4.48-14.284 16.072-44.583 31.024-44.547 10.125.495 21.619 17.46 30.114 44.547 2.641 8.421 4.961 17.603 6.947 27.384-12.158 2.439-24.726 3.702-37.516 3.702s-25.358-1.263-37.516-3.702c1.986-9.781 4.306-18.963 6.947-27.384zm138.228-3.648c-3.585 2.705-7.286 5.266-11.097 7.672-2.147-3.622-4.4-7.145-6.767-10.549-5.402-7.769-11.226-14.737-17.395-20.879 12.728 6.36 24.59 14.354 35.259 23.756zm-119.371-96.759h23.423l4.366 13.985h-32.156zm4.683-15 7.029-22.513 7.029 22.513zm7.029-68.477c4.211 0 7.637 3.426 7.637 7.637 0 4.074-3.209 7.403-7.231 7.616-.029.001-.057-.005-.086-.004-.101.004-.2.009-.318.017-.106-.007-.213-.013-.32-.017-.029-.001-.056.005-.084.004-4.023-.212-7.233-3.542-7.233-7.616-.002-4.211 3.424-7.637 7.635-7.637zm-20.761 112.462h41.522l4.246 13.6c-16.471-2.315-33.352-2.344-50.017.008zm-86.94 67.743c10.726-9.463 22.642-17.494 35.434-23.856-9.478 9.412-17.51 20.117-24.294 31.559-3.827-2.416-7.542-4.986-11.14-7.703zm17.063 28.336c11.323 5.821 23.33 10.515 35.83 14.006-3.596 22.112-5.652 46.522-5.991 71.884h-49.859c.99-31.861 8.255-61.359 20.02-85.89zm-69.381 122.514c-1.284-7.104-2.095-14.349-2.427-21.624h36.781c.984 33.783 8.603 65.913 21.969 93.293-5.192 3.236-10.202 6.732-15.015 10.474-20.824-22.19-35.563-50.371-41.307-82.133.001-.003 0-.006-.001-.01zm52.187 92.701c3.639-2.754 7.398-5.357 11.271-7.802 2.147 3.622 4.4 7.145 6.767 10.549 5.537 7.964 11.518 15.083 17.86 21.337-13.024-6.414-25.091-14.529-35.898-24.084zm215.579-.064c-10.788 9.533-22.759 17.559-35.569 23.909 6.251-6.196 12.15-13.236 17.617-21.098 2.367-3.404 4.619-6.927 6.767-10.549 3.842 2.426 7.572 5.008 11.185 7.738zm-17.109-28.371c-11.323-5.82-23.33-10.515-35.83-14.006 3.596-22.112 5.652-46.523 5.991-71.885h49.859c-.99 31.862-8.255 61.36-20.02 85.891z"/><path d="m297.911 66.278c3.408 2.356 8.08 1.5 10.434-1.906 4.957-7.173 7.577-15.569 7.577-24.283 0-8.693-2.608-17.074-7.543-24.235-2.351-3.41-7.019-4.271-10.432-1.92-3.41 2.351-4.271 7.021-1.92 10.432 3.202 4.646 4.895 10.084 4.895 15.724 0 5.652-1.7 11.101-4.917 15.756-2.356 3.406-1.502 8.078 1.906 10.432z"/><path d="m214.04 66.232c3.412-2.349 4.273-7.019 1.925-10.431-3.197-4.644-4.887-10.077-4.887-15.712 0-5.658 1.703-11.109 4.926-15.767 2.356-3.406 1.506-8.078-1.9-10.436-3.406-2.355-8.079-1.506-10.436 1.9-4.965 7.177-7.59 15.58-7.59 24.302 0 8.687 2.604 17.061 7.531 24.218 2.347 3.408 7.013 4.277 10.431 1.926z"/><path d="m190.096 78.761c3.411-2.349 4.272-7.019 1.923-10.431-5.748-8.347-8.786-18.112-8.786-28.241 0-10.164 3.059-19.957 8.845-28.322 2.356-3.406 1.505-8.078-1.901-10.435-3.405-2.355-8.077-1.505-10.435 1.901-7.529 10.884-11.509 23.628-11.509 36.855 0 13.181 3.953 25.888 11.433 36.749 2.347 3.411 7.016 4.275 10.43 1.924z"/><path d="m321.837 78.833c3.411 2.357 8.08 1.499 10.435-1.905 7.521-10.881 11.496-23.619 11.496-36.839 0-13.188-3.958-25.901-11.444-36.765-2.351-3.411-7.021-4.271-10.432-1.92s-4.271 7.021-1.92 10.432c5.755 8.349 8.796 18.118 8.796 28.253 0 10.158-3.056 19.947-8.836 28.31-2.355 3.407-1.502 8.079 1.905 10.434z"/></g></svg>