<?xml version="1.0" encoding="iso-8859-1"?>
<!-- Generator: Adobe Illustrator 19.0.0, SVG Export Plug-In . SVG Version: 6.00 Build 0)  -->
<svg version="1.1" id="Capa_1" xmlns="http://www.w3.org/2000/svg" xmlns:xlink="http://www.w3.org/1999/xlink" x="0px" y="0px"
	 width="18" height="18" viewBox="0 0 512.001 512.001" style="enable-background:new 0 0 512.001 512.001;" xml:space="preserve">
<path style="fill:#FFFFFF;" d="M256.924,317.236c-4.781-4.781-9.231-9.762-13.362-14.922
	c-56.619-70.681-52.158-174.148,13.362-239.678c27.218-27.214,60.982-43.885,96.22-50.029
	c-55.793-9.729-115.287,6.942-158.38,50.029c-65.52,65.531-69.981,168.997-13.362,239.678c4.131,5.161,8.581,10.142,13.362,14.922
	c4.781,4.781,9.762,9.231,14.922,13.362c41.318,33.097,93.837,45.312,143.435,36.67c-29.042-5.068-57.08-17.288-81.275-36.67
	C266.685,326.467,261.705,322.016,256.924,317.236z"/>
<path style="fill:#514E73;" d="M449.365,62.634c-27.218-27.214-60.982-43.885-96.22-50.029c-35.24,6.144-69.002,22.815-96.22,50.029
	c-65.521,65.53-69.981,168.997-13.362,239.678c4.131,5.161,8.581,10.142,13.362,14.922c4.781,4.781,9.762,9.231,14.922,13.362
	c24.196,19.382,52.233,31.602,81.275,36.67c35.248-6.142,69.02-22.813,96.243-50.032
	C519.666,246.924,519.666,132.946,449.365,62.634z"/>
<path style="fill:#FFFFFF;" d="M273.549,127.935c0-0.02,0.01-0.04,0.02-0.05c6.944-14.057,15.866-26.262,26.454-36.896
	c17.45-17.45,38.396-29.339,60.607-35.662c-47.374-13.502-100.446-1.534-137.642,35.662c-10.589,10.634-19.51,22.839-26.454,36.896
	c-0.01,0.01-0.02,0.03-0.02,0.05c-25.272,50.029-17.965,116.514,26.544,161.006c38.112,38.119,90.899,48.634,137.281,35.573
	c-21.83-6.22-42.611-17.935-60.246-35.573C255.586,244.448,248.277,177.964,273.549,127.935z"/>
<path style="fill:#D4E9FF;" d="M447.974,251.184c5.165-10.614,5.909-14.63,6.221-14.942c17.245-49.637,5.85-106.344-33.125-145.313
	c-17.438-17.444-38.318-29.297-60.44-35.602c-22.211,6.322-43.157,18.212-60.607,35.662c-10.589,10.634-19.51,22.839-26.454,36.896
	c-0.01,0.01-0.02,0.03-0.02,0.05c-25.272,50.029-17.964,116.514,26.544,161.006c17.635,17.638,38.415,29.354,60.246,35.573
	C397.047,314.178,429.743,289.08,447.974,251.184z"/>
<polygon style="fill:#FFE985;" points="181.402,302.313 138.185,345.52 166.479,373.814 209.686,330.597 "/>
<path style="fill:#ED4C74;" d="M136.456,372.076L48.292,460.25c-10.831,10.824-14.151,26.302-9.975,39.987
	c13.684,4.177,29.164,0.856,39.987-9.975l88.174-88.164c7.811-7.811,7.811-20.473,0-28.285l-1.738-1.738
	C156.93,364.265,144.268,364.265,136.456,372.076z"/>
<path d="M447.331,272.505c37.317-56.559,32.738-133.654-16.505-185.9c-49.161-51.53-124.712-59.441-180.6-28.393
	c-4.829,2.682-6.568,8.772-3.886,13.6c2.682,4.83,8.772,6.567,13.6,3.886c51.118-28.401,115.436-18.236,156.371,24.671
	c42.236,44.811,46.992,111.607,14.317,161.128c-45.008,68.362-142.217,78.664-200.5,20.37
	c-39.273-39.259-50.651-102.572-22.282-154.093c2.662-4.84,0.897-10.922-3.942-13.584c-4.839-2.66-10.92-0.897-13.584,3.942
	c-0.613,1.115-1.703,3.194-2.754,5.324h0.001c-29.088,59.294-15.854,128.301,28.418,172.556
	C283.134,363.173,395.296,351.542,447.331,272.505z"/>
<path d="M102.828,338.448L14.667,426.62c-19.547,19.534-19.563,51.168-0.005,70.713c19.539,19.552,51.172,19.56,70.715,0.002
	l88.175-88.164c9.407-9.408,11.1-23.226,5.868-34.153l31.163-31.17c74.758,54.271,179.227,47.079,245.855-19.54
	c74.083-74.093,74.083-194.651-0.001-268.745c-74.091-74.081-194.651-74.084-268.745,0.001
	c-66.628,66.638-73.801,171.115-19.542,245.856l-31.167,31.16C126.057,327.35,112.239,329.038,102.828,338.448z M187.692,324.307
	c2.351,2.351,4.78,4.647,7.261,6.882l-28.474,28.481l-14.148-14.148l28.481-28.474C183.046,319.527,185.34,321.957,187.692,324.307z
	 M159.407,395.027L71.23,483.193c-11.719,11.728-30.689,11.739-42.424-0.005c-11.73-11.721-11.737-30.691,0.002-42.422
	l88.164-88.174c3.897-3.898,10.242-3.9,14.139,0l28.295,28.295C163.306,384.785,163.306,391.129,159.407,395.027z M201.836,69.707
	c66.289-66.28,174.158-66.291,240.457,0c66.285,66.294,66.285,174.163,0.001,240.456c-66.277,66.267-173.635,66.831-240.458,0
	C135.093,243.427,135.49,136.064,201.836,69.707z"/>
<path d="M216.237,98.25c3.931,3.651,10.072,3.561,13.892-0.25c3.811-3.821,3.901-9.962,0.24-13.892c-0.07-0.09-0.15-0.17-0.24-0.26
	c-3.911-3.901-10.242-3.901-14.152,0c-3.901,3.911-3.901,10.242,0,14.152C216.067,98.09,216.147,98.17,216.237,98.25z"/>
<g>
</g>
<g>
</g>
<g>
</g>
<g>
</g>
<g>
</g>
<g>
</g>
<g>
</g>
<g>
</g>
<g>
</g>
<g>
</g>
<g>
</g>
<g>
</g>
<g>
</g>
<g>
</g>
<g>
</g>
</svg>
